<svg xmlns="http://www.w3.org/2000/svg" width="157.95" height="23.569" viewBox="0 0 157.95 23.569">
  <g id="Logo_Text_Icon_-_Light" data-name="Logo Text Icon - Light" transform="translate(-550 -618.431)">
    <path id="Path_117" data-name="Path 117" d="M-28.261-7.008a5.916,5.916,0,0,1-.522,2.293,8.272,8.272,0,0,1-1.642,2.422,8.38,8.38,0,0,1-2.861,1.93,10.284,10.284,0,0,1-4.057.742A14.176,14.176,0,0,1-40.536.045,8.972,8.972,0,0,1-43.148-.991,8.809,8.809,0,0,1-45.3-2.846a11.019,11.019,0,0,1-1.5-2.339,12.194,12.194,0,0,1-.931-2.762,15.057,15.057,0,0,1-.31-3.118,13.832,13.832,0,0,1,.78-4.8,10.235,10.235,0,0,1,2.233-3.625,9.738,9.738,0,0,1,3.406-2.293,11.028,11.028,0,0,1,4.163-.787,10.4,10.4,0,0,1,4.8,1.075,8.684,8.684,0,0,1,3.224,2.656,5.245,5.245,0,0,1,1.12,2.99,1.949,1.949,0,0,1-.545,1.362,1.728,1.728,0,0,1-1.317.59,1.819,1.819,0,0,1-1.294-.409,5.66,5.66,0,0,1-.961-1.408A6.77,6.77,0,0,0-34.5-18.179,5.045,5.045,0,0,0-37.433-19a5.308,5.308,0,0,0-4.412,2.1,9.528,9.528,0,0,0-1.642,5.979,11.1,11.1,0,0,0,.727,4.306A5.437,5.437,0,0,0-40.7-4.042a5.682,5.682,0,0,0,3.118.848,5.473,5.473,0,0,0,3.277-.961,5.806,5.806,0,0,0,2.021-2.823,4.79,4.79,0,0,1,.711-1.43,1.609,1.609,0,0,1,1.362-.552,1.9,1.9,0,0,1,1.377.56A1.865,1.865,0,0,1-28.261-7.008ZM-4.849-18.482h-4.9V-2.361A2.967,2.967,0,0,1-10.374-.3a2.082,2.082,0,0,1-1.6.674A2.112,2.112,0,0,1-13.605-.3a2.947,2.947,0,0,1-.628-2.059V-18.482h-4.9a2.483,2.483,0,0,1-1.71-.507,1.72,1.72,0,0,1-.56-1.34,1.7,1.7,0,0,1,.583-1.362,2.524,2.524,0,0,1,1.688-.5H-4.849a2.514,2.514,0,0,1,1.733.515,1.733,1.733,0,0,1,.568,1.347,1.7,1.7,0,0,1-.575,1.34A2.544,2.544,0,0,1-4.849-18.482ZM19.274-2.513,18.215-5.3H9.193L8.134-2.452A9.962,9.962,0,0,1,7.074-.2,1.684,1.684,0,0,1,5.636.378a2.108,2.108,0,0,1-1.5-.621A1.9,1.9,0,0,1,3.487-1.65a3.14,3.14,0,0,1,.151-.938q.151-.484.5-1.347l5.676-14.41.583-1.491a7.539,7.539,0,0,1,.727-1.446,2.952,2.952,0,0,1,1.014-.931,3.109,3.109,0,0,1,1.552-.356,3.143,3.143,0,0,1,1.567.356,3.012,3.012,0,0,1,1.014.916,6.423,6.423,0,0,1,.651,1.2q.265.643.674,1.718l5.8,14.319a7.2,7.2,0,0,1,.681,2.376,1.967,1.967,0,0,1-.643,1.415,2.114,2.114,0,0,1-1.552.643A2.012,2.012,0,0,1,20.97.189a1.86,1.86,0,0,1-.636-.515,4.735,4.735,0,0,1-.552-1Q19.486-2,19.274-2.513Zm-8.9-6.161H17l-3.345-9.158Zm27.816-11.2L46.833-6.8V-20a2.9,2.9,0,0,1,.552-1.93,1.864,1.864,0,0,1,1.491-.643,1.922,1.922,0,0,1,1.529.643,2.87,2.87,0,0,1,.56,1.93V-2.543q0,2.921-2.422,2.921A3.207,3.207,0,0,1,47.454.2a2.766,2.766,0,0,1-.908-.552,5.382,5.382,0,0,1-.787-.885q-.363-.507-.727-1.037L36.6-15.2v13a2.774,2.774,0,0,1-.59,1.922A1.952,1.952,0,0,1,34.5.378,1.93,1.93,0,0,1,32.968-.28a2.828,2.828,0,0,1-.575-1.915v-17.12a4.847,4.847,0,0,1,.242-1.71,2.442,2.442,0,0,1,.954-1.113,2.6,2.6,0,0,1,1.438-.431,2.485,2.485,0,0,1,1.037.2,2.5,2.5,0,0,1,.757.53,5.469,5.469,0,0,1,.666.863Q37.827-20.45,38.19-19.875Zm37.277,1.15H65.341v5.449h9.324a2.22,2.22,0,0,1,1.536.462,1.569,1.569,0,0,1,.507,1.219,1.629,1.629,0,0,1-.5,1.234,2.168,2.168,0,0,1-1.544.477H65.341v6.312H75.815a2.292,2.292,0,0,1,1.6.492,1.689,1.689,0,0,1,.537,1.309,1.654,1.654,0,0,1-.537,1.279,2.292,2.292,0,0,1-1.6.492H63.6a2.883,2.883,0,0,1-2.112-.651,2.909,2.909,0,0,1-.643-2.1V-19.436a3.741,3.741,0,0,1,.288-1.582,1.786,1.786,0,0,1,.9-.893,3.786,3.786,0,0,1,1.567-.28H75.467a2.306,2.306,0,0,1,1.6.477,1.611,1.611,0,0,1,.522,1.249,1.629,1.629,0,0,1-.522,1.264A2.306,2.306,0,0,1,75.467-18.724Z" transform="translate(630 641)" fill="#fff"/>
    <g id="Group_330" data-name="Group 330" transform="translate(376 445)">
      <path id="Subtraction_2" data-name="Subtraction 2" d="M11.5,23a11.658,11.658,0,0,1-1.751-.132L13.1,19.513A8.168,8.168,0,0,0,18.332,7.022L20.723,4.63c.108.145.213.293.312.44A11.5,11.5,0,0,1,11.5,23ZM6.2,21.709h0a11.555,11.555,0,0,1-1.13-.673c-.148-.1-.3-.205-.44-.313l2.392-2.392a8.161,8.161,0,0,0,1.7.854L6.2,21.709ZM2.276,18.37h0c-.107-.144-.212-.292-.312-.44a11.544,11.544,0,0,1-.673-1.13l2.523-2.523a8.163,8.163,0,0,0,.854,1.7L2.277,18.369ZM.132,13.251h0A11.66,11.66,0,0,1,0,11.5,11.448,11.448,0,0,1,1.964,5.07,11.534,11.534,0,0,1,7.024.9,11.485,11.485,0,0,1,17.93,1.964c.148.1.3.2.44.312L15.978,4.668A8.168,8.168,0,0,0,3.487,9.9L.132,13.251Z" transform="translate(174 174)" fill="#fff"/>
      <circle id="Ellipse_22" data-name="Ellipse 22" cx="1.5" cy="1.5" r="1.5" transform="translate(184 184)" fill="#fff"/>
    </g>
  </g>
</svg>
